<svg width="60" height="60" viewBox="0 0 60 60" fill="none" xmlns="http://www.w3.org/2000/svg">
    <circle cx="30" cy="30" r="30" fill="#E2E8F0"/>
    <path d="M31.5752 27.384C34.0472 27.624 35.9312 28.392 37.2272 29.688C38.5232 30.96 39.1712 32.592 39.1712 34.584C39.1712 36.024 38.8112 37.332 38.0912 38.508C37.3712 39.66 36.2912 40.584 34.8512 41.28C33.4352 41.952 31.6952 42.288 29.6312 42.288C27.8312 42.288 26.1032 42.024 24.4472 41.496C22.7912 40.944 21.4352 40.188 20.3792 39.228L22.0352 36.384C22.8992 37.2 24.0032 37.86 25.3472 38.364C26.6912 38.844 28.1192 39.084 29.6312 39.084C31.5032 39.084 32.9552 38.688 33.9872 37.896C35.0432 37.104 35.5712 36.012 35.5712 34.62C35.5712 33.228 35.0552 32.148 34.0232 31.38C32.9912 30.612 31.4312 30.228 29.3432 30.228H27.3272V27.708L33.6632 19.932H21.5312V16.8H38.1632V19.248L31.5752 27.384Z" fill="#1E4975"/>
</svg>
