<svg width="60" height="60" viewBox="0 0 60 60" fill="none" xmlns="http://www.w3.org/2000/svg">
<circle cx="30" cy="30" r="30" fill="#E2E8F0"/>
<path d="M39.6041 38.868V42H21.4961V39.552L31.7561 29.652C33.0041 28.452 33.8441 27.42 34.2761 26.556C34.7081 25.668 34.9241 24.78 34.9241 23.892C34.9241 22.572 34.4561 21.552 33.5201 20.832C32.6081 20.088 31.2881 19.716 29.5601 19.716C26.7761 19.716 24.6281 20.628 23.1161 22.452L20.6681 20.328C21.6521 19.128 22.9361 18.192 24.5201 17.52C26.1281 16.848 27.9161 16.512 29.8841 16.512C32.5241 16.512 34.6241 17.148 36.1841 18.42C37.7441 19.668 38.5241 21.372 38.5241 23.532C38.5241 24.876 38.2361 26.148 37.6601 27.348C37.0841 28.548 35.9921 29.916 34.3841 31.452L26.6801 38.868H39.6041Z" fill="#1E4975"/>
</svg>
