<svg width="60" height="60" viewBox="0 0 60 60" fill="none" xmlns="http://www.w3.org/2000/svg">
<circle cx="30" cy="30" r="30" fill="#E2E8F0"/>
<path d="M29.0921 26.844C32.6921 26.844 35.3321 27.528 37.0121 28.896C38.7161 30.24 39.5681 32.088 39.5681 34.44C39.5681 35.928 39.2081 37.272 38.4881 38.472C37.7921 39.648 36.7241 40.584 35.2841 41.28C33.8681 41.952 32.1161 42.288 30.0281 42.288C28.2521 42.288 26.5361 42.024 24.8801 41.496C23.2241 40.944 21.8561 40.188 20.7761 39.228L22.4321 36.384C23.2961 37.2 24.4001 37.86 25.7441 38.364C27.0881 38.844 28.5041 39.084 29.9921 39.084C31.8881 39.084 33.3521 38.688 34.3841 37.896C35.4401 37.08 35.9681 35.976 35.9681 34.584C35.9681 33.072 35.3921 31.932 34.2401 31.164C33.0881 30.372 31.1201 29.976 28.3361 29.976H22.6121L23.9441 16.8H38.1641V19.932H26.9681L26.2841 26.844H29.0921Z" fill="#1E4975"/>
</svg>
